# xmcd CD database file
#
# Track frame offsets:
#	150
#	29562
#	55435
#	83616
#	115378
#	147018
#	166018
#	177534
#
# Disc length: 2985 seconds
#
# Revision: 0
# Processed by: cddbd v1.5.2PL0 Copyright (c) Steve Scherf et al.
# Submitted via: CDex 1.51
#
DISCID=670ba708
DTITLE=Jens Winther European Quartet - New Directions
DYEAR=2009
DGENRE=Jazz
TTITLE0=Magic Toys
TTITLE1=Demon's Eye
TTITLE2=City Riot
TTITLE3=Sanctuary
TTITLE4=Winther Structures
TTITLE5=Strange Beauty
TTITLE6=Hip-cut
TTITLE7=March 11th
EXTD=YEAR: 2009
EXTT0=
EXTT1=
EXTT2=
EXTT3=
EXTT4=
EXTT5=
EXTT6=
EXTT7=
PLAYORDER=
